<?xml version="1.0" standalone="no"?>
<!DOCTYPE svg PUBLIC "-//W3C//DTD SVG 20010904//EN"
 "http://www.w3.org/TR/2001/REC-SVG-20010904/DTD/svg10.dtd">
<svg version="1.0" xmlns="http://www.w3.org/2000/svg"
 width="16.000000pt" height="16.000000pt" viewBox="0 0 16.000000 16.000000"
 preserveAspectRatio="xMidYMid meet">
<metadata>
Created by potrace 1.11, written by Peter Selinger 2001-2013
</metadata>
<g transform="translate(0.000000,16.000000) scale(0.005333,-0.005333)"
fill="#000000" stroke="none">
<path d="M1235 2802 c-2 -3 -33 -6 -67 -7 -35 -2 -83 -6 -108 -10 -25 -4 -54
-8 -65 -9 -11 0 -22 -4 -25 -7 -5 -6 -68 -20 -97 -22 -7 0 -13 -3 -13 -7 0 -3
-9 -6 -20 -7 -11 -1 -35 -9 -52 -17 -17 -9 -35 -16 -40 -16 -18 0 -179 -81
-223 -112 -44 -31 -50 -43 -60 -123 -2 -22 -11 -64 -18 -93 -9 -31 -10 -55 -5
-58 11 -7 8 -12 48 68 67 137 152 216 305 288 79 37 113 48 170 56 69 10 74 8
69 -19 -3 -19 -63 -171 -103 -262 -18 -40 -40 -91 -65 -152 -14 -35 -38 -89
-52 -120 -14 -32 -31 -71 -39 -88 -7 -16 -29 -65 -49 -108 -20 -43 -36 -80
-36 -82 0 -5 -95 -205 -203 -425 -50 -102 -91 -187 -92 -190 -1 -5 -79 -159
-173 -343 -50 -98 -54 -128 -11 -82 13 13 30 25 38 25 8 0 11 3 8 7 -18 18 46
29 154 27 l116 -2 12 37 c7 20 23 63 36 96 66 170 128 323 140 350 16 36 38
88 39 95 2 10 160 377 193 448 18 39 33 74 33 76 0 3 15 37 34 78 18 40 57
125 86 188 43 95 127 265 186 380 7 14 26 40 42 59 26 32 33 35 78 33 70 -2
85 -5 127 -26 45 -22 81 -66 103 -127 26 -73 21 -269 -11 -354 -4 -11 -12 -33
-18 -50 -19 -52 -78 -135 -128 -178 -27 -23 -50 -40 -52 -37 -2 3 -11 -3 -21
-12 -10 -10 -24 -18 -32 -18 -8 0 -14 -5 -14 -11 0 -5 -4 -7 -10 -4 -5 3 -10
2 -10 -2 0 -5 -33 -18 -72 -28 -81 -21 -95 -24 -187 -29 -71 -5 -87 -18 -64
-53 8 -13 11 -23 7 -23 -5 0 -4 -4 1 -8 6 -4 48 -92 94 -197 46 -104 98 -221
116 -260 17 -38 45 -99 61 -135 29 -66 123 -251 164 -325 150 -269 305 -446
460 -525 25 -12 48 -27 51 -32 3 -5 10 -9 15 -9 5 1 30 -6 55 -14 25 -9 54
-17 65 -19 234 -45 399 -30 554 49 90 45 131 69 150 88 27 24 15 43 -13 22
-12 -8 -33 -21 -47 -27 -14 -7 -27 -15 -30 -18 -10 -13 -102 -52 -148 -64 -43
-11 -177 -13 -227 -3 -218 43 -428 255 -649 657 -62 113 -252 491 -304 605
-85 187 -92 204 -102 229 -12 32 6 55 45 58 17 1 34 4 40 7 5 3 21 6 35 7 34
3 146 42 195 68 195 103 314 285 320 491 5 193 -104 302 -340 340 -94 15 -340
27 -350 17z"/>
</g>
</svg>
